# xmcd
#
# Track frame offsets:
#	150
#	18800
#	35216
#	50359
#	65906
#	83447
#	99156
#	112377
#	131643
#	148256
#	165354
#	184133
#	200985
#	218387
#	236392
#	255932
#	272097
#	289152
#
# Disc length: 4065 seconds
#
# Revision: 1
# Processed by: cddbd v1.5.1PL0 Copyright (c) Steve Scherf et al.
# Submitted via: audiograbber 1.83.01
#
DISCID=060fdf12
DTITLE=Various Artist - Barretão Duplo 2004 01
DYEAR=2005
DGENRE=Country
TTITLE0=01- Glaydson Rodrigues - Funk Barretao
TTITLE1=02- Gino and Geno - Cara de Boi (ao vivo)
TTITLE2=03- Ataide and Alexandre - Uai So (Remix)
TTITLE3=04- Diogo and Marcel - Quebradeira
TTITLE4=05- Sergio Reis and Filhos - O Menino da Porteira
TTITLE5=06- Sula Mazurega - Quero Ser Seu Dono
TTITLE6=07- Delley and Dorivan - To Doidao
TTITLE7=08- Juliano Cesar - Casar Pra Que
TTITLE8=09- Joao Pedro and Cristiano - Era So Pra Ficar
TTITLE9=10- Jad and Jefferson - Furar o Couro
TTITLE10=11- Ze Henrique and Gabriel - Um Louco
TTITLE11=12- Guto and Nando - To Indo Te Buscar
TTITLE12=13- Roby and Roger - Magia
TTITLE13=14- Chico Rey and Parana - Um Degrau Na Escada
TTITLE14=15- Bruno and Marlow - Me Da Me Da
TTITLE15=16- Guilherme and Gustavo - Pedacinhos
TTITLE16=17- Gleydson Rodrigues - Touro Bandido
TTITLE17=18- Glaydson Rodrigues - Glaydson No Rodeio
EXTD=
EXTT0=
EXTT1=
EXTT2=
EXTT3=
EXTT4=
EXTT5=
EXTT6=
EXTT7=
EXTT8=
EXTT9=
EXTT10=
EXTT11=
EXTT12=
EXTT13=
EXTT14=
EXTT15=
EXTT16=
EXTT17=
PLAYORDER=
